Coordinates
version=1
nRows=60
nColumns=12
inDegrees=yes

Units are S.I. units (second, meters, Newtons, ...)
Angles are in degrees

endheader
time	SC_y	SC_z	SC_x	AC_y	AC_z	AC_x	GH_y	GH_z	GH_yy	EL_x	PS_y
       0.0              -18.42          14.82          23.02          68.15         -9.435          1.193         -172.7          29.45           26.6          49.68          105.0
   0.01002              -18.43          14.82          23.02          68.14         -9.433          1.196         -172.7          29.46           26.6          49.69          104.9
   0.02005              -18.43          14.82          23.01          68.14          -9.43          1.198         -172.6          29.46           26.6          49.69          104.9
   0.03007              -18.44          14.82          23.01          68.14         -9.428          1.201         -172.6          29.46          26.61          49.69          104.9
    0.0401              -18.44          14.83          23.01          68.13         -9.425          1.203         -172.6          29.47          26.61          49.69          104.9
   0.05012              -18.45          14.83          23.01          68.13         -9.422          1.206         -172.6          29.47          26.62           49.7          104.9
   0.06015              -18.46          14.83           23.0          68.12         -9.419          1.209         -172.5          29.48          26.62           49.7          104.9
   0.07017              -18.46          14.84           23.0          68.12         -9.416          1.213         -172.5          29.48          26.63           49.7          104.8
    0.0802              -18.47          14.84           23.0          68.11         -9.412          1.216         -172.5          29.49          26.63           49.7          104.8
   0.09022              -18.48          14.84          22.99          68.11         -9.409           1.22         -172.5          29.49          26.64          49.71          104.8
    0.1002              -18.49          14.85          22.99           68.1         -9.405          1.224         -172.4           29.5          26.65          49.71          104.8
    0.1103               -18.5          14.85          22.99          68.09           -9.4          1.229         -172.4           29.5          26.65          49.71          104.8
    0.1203              -18.51          14.86          22.98          68.09         -9.396          1.233         -172.3          29.51          26.66          49.72          104.7
    0.1303              -18.52          14.86          22.98          68.08         -9.391          1.239         -172.3          29.52          26.67          49.72          104.7
    0.1403              -18.53          14.87          22.97          68.07         -9.385          1.244         -172.3          29.53          26.68          49.73          104.7
    0.1504              -18.54          14.87          22.97          68.06         -9.379           1.25         -172.2          29.54          26.69          49.73          104.6
    0.1604              -18.56          14.88          22.96          68.05         -9.373          1.257         -172.1          29.54           26.7          49.74          104.6
    0.1704              -18.57          14.88          22.96          68.04         -9.366          1.264         -172.1          29.56          26.71          49.74          104.6
    0.1804              -18.59          14.89          22.95          68.03         -9.358          1.272         -172.0          29.57          26.72          49.75          104.5
    0.1905              -18.61           14.9          22.94          68.02          -9.35           1.28         -172.0          29.58          26.74          49.76          104.5
    0.2005              -18.63          14.91          22.93           68.0         -9.341           1.29         -171.9          29.59          26.75          49.77          104.4
    0.2105              -18.65          14.92          22.92          67.99         -9.331            1.3         -171.8          29.61          26.77          49.78          104.4
    0.2205              -18.67          14.93          22.91          67.97         -9.319          1.311         -171.7          29.62          26.79          49.79          104.3
    0.2306               -18.7          14.94           22.9          67.95         -9.307          1.324         -171.6          29.64          26.81           49.8          104.2
    0.2406              -18.73          14.96          22.89          67.93         -9.293          1.338         -171.5          29.66          26.83          49.81          104.1
    0.2506              -18.76          14.97          22.88          67.91         -9.278          1.354         -171.4          29.69          26.86          49.82          104.1
    0.2606               -18.8          14.99          22.86          67.88         -9.261          1.371         -171.2          29.71          26.89          49.84          104.0
    0.2707              -18.84          15.01          22.84          67.85         -9.241          1.391         -171.0          29.74          26.92          49.85          103.9
    0.2807              -18.89          15.03          22.82          67.82         -9.219          1.413         -170.9          29.77          26.95          49.87          103.7
    0.2907              -18.94          15.05           22.8          67.78         -9.195          1.438         -170.7          29.81           27.0          49.89          103.6
    0.3007               -19.0          15.08          22.78          67.74         -9.166          1.467         -170.4          29.85          27.04          49.92          103.4
    0.3108              -19.07          15.11          22.75          67.69         -9.134          1.501         -170.1           29.9           27.1          49.95          103.2
    0.3208              -19.15          15.15          22.71          67.64         -9.096          1.539         -169.8          29.96          27.16          49.98          103.0
    0.3308              -19.25          15.19          22.67          67.57         -9.053          1.583         -169.5          30.02          27.23          50.02          102.8
    0.3408              -19.36          15.24          22.63          67.49         -9.002          1.635         -169.0           30.1          27.32          50.06          102.5
    0.3509              -19.49           15.3          22.57           67.4         -8.941          1.697         -168.5          30.19          27.42          50.12          102.1
    0.3609              -19.64          15.37          22.51          67.29          -8.87           1.77         -167.9          30.29          27.54          50.18          101.7
    0.3709              -19.83          15.45          22.43          67.16         -8.784          1.857         -167.2          30.42          27.68          50.26          101.2
    0.3809              -20.05          15.55          22.34          67.01         -8.681          1.963         -166.3          30.58          27.85          50.35          100.7
     0.391              -20.33          15.68          22.22          66.82         -8.554          2.092         -165.3          30.76          28.07          50.46          99.94
     0.401              -20.67          15.83          22.08          66.58         -8.397          2.251         -164.0           31.0          28.33          50.59          99.05
     0.411              -21.09          16.02          21.91          66.29         -8.203           2.45         -162.3          31.29          28.65          50.77          97.94
     0.421              -21.62          16.26          21.68          65.92         -7.957          2.701         -160.3          31.65          29.06          50.98          96.54
    0.4311              -22.29          16.56           21.4          65.45         -7.645          3.019         -157.6          32.12          29.58          51.25          94.76
    0.4411              -23.16          16.95          21.04          64.84         -7.245          3.427         -154.3          32.71          30.25          51.61          92.49
    0.4511              -24.27          17.45          20.58          64.07         -6.732           3.95         -150.0          33.48          31.11          52.05          89.57
    0.4611              -25.69          18.09          19.99          63.08         -6.077          4.618         -144.5          34.45           32.2          52.63          85.84
    0.4711              -27.47          18.89          19.24          61.84         -5.254          5.458         -137.6          35.68          33.58          53.35          81.15
    0.4812              -29.64          19.87          18.34          60.33          -4.25          6.482         -129.2          37.17          35.25          54.23          75.44
    0.4912              -32.16           21.0          17.29          58.57         -3.086          7.668         -119.4           38.9           37.2          55.25          68.82
    0.5012              -34.88          22.22          16.15          56.67         -1.827          8.953         -108.8          40.78           39.3          56.36          61.65
    0.5112              -37.61          23.45          15.01          54.77         -0.567          10.24         -98.24          42.65           41.4          57.46          54.48
    0.5213              -40.13          24.58          13.96          53.02         0.5964          11.42         -88.48          44.39          43.35          58.48          47.86
    0.5313               -42.3          25.56          13.06           51.5            1.6          12.45         -80.05          45.88          45.02          59.36          42.14
    0.5413              -44.08          26.36          12.31          50.26          2.424          13.29         -73.14          47.11           46.4          60.09          37.45
    0.5513               -45.5           27.0          11.72          49.27          3.079          13.96         -67.64          48.08          47.49          60.66          33.73
    0.5614              -46.61           27.5          11.26           48.5          3.592          14.48         -63.34          48.85          48.35          61.11          30.81
    0.5714              -47.47          27.89           10.9           47.9          3.991          14.89         -59.98          49.44          49.02          61.46          28.53
    0.5814              -48.15          28.19          10.62          47.43          4.303          15.21         -57.36           49.9          49.54          61.74          26.76
    0.5914              -48.68          28.43           10.4          47.06          4.549          15.46          -55.3          50.27          49.95          61.95          25.36
